<svg width="256" height="256" xmlns="http://www.w3.org/2000/svg" preserveAspectRatio="xMinYMin meet">

 <g>
  <title>Layer 1</title>
  <g id="svg_1" fill-rule="evenodd">
   <ellipse id="svg_2" ry="66.63" rx="128" cy="127.63" cx="128" fill="#8993BE"/>
   <path id="svg_3" fill="#232531" d="m35.945,167.082l14.028,-71.014l32.437,0c14.027,0.877 21.041,7.89 21.041,20.165c0,21.041 -16.657,33.315 -31.562,32.438l-15.779,0l-3.507,18.411l-16.658,0zm23.671,-31.561l4.384,-26.302l11.397,0c6.137,0 10.52,2.63 10.52,7.89c-0.876,14.905 -7.89,17.535 -15.78,18.412l-10.52,0l-0.001,0zm40.576,13.15l14.027,-71.013l16.658,0l-3.507,18.41l15.78,0c14.028,0.877 19.288,7.89 17.535,16.658l-6.137,35.945l-17.534,0l6.137,-32.438c0.876,-4.384 0.876,-7.014 -5.26,-7.014l-13.151,0l-7.89,39.452l-16.658,0zm53.233,18.411l14.027,-71.014l32.438,0c14.028,0.877 21.042,7.89 21.042,20.165c0,21.041 -16.658,33.315 -31.562,32.438l-15.781,0l-3.507,18.411l-16.657,0zm23.67,-31.561l4.384,-26.302l11.398,0c6.137,0 10.52,2.63 10.52,7.89c-0.876,14.905 -7.89,17.535 -15.78,18.412l-10.521,0l-0.001,0z"/>
  </g>
 </g>
</svg>